<!--
  Created by Melissa Schmitt from the Noun Project — CC-BY
  https://thenounproject.com/term/kitchen-sink/534391/
-->
<svg xmlns="http://www.w3.org/2000/svg" xmlns:xlink="http://www.w3.org/1999/xlink" version="1.1" x="0px" y="0px" viewBox="0 0 100 125" enable-background="new 0 0 100 100" xml:space="preserve"><path d="M94.117,67.205c-2.457,15.139-21.269,26.912-44.12,26.912S8.333,82.344,5.883,67.205H94.117z M86.026,30.122  c0-13.363-10.409-24.239-23.203-24.239h-2.456c-12.797,0-23.207,10.876-23.207,24.239v3.79h15.603v-3.79  c0-5.37,3.481-9.909,7.604-9.909h2.456c4.116,0,7.599,4.539,7.599,9.909v31.177h15.604V30.122z M50.138,48.259l-5.375-9.656  l-5.16,9.147c-0.608,0.867-0.962,1.886-0.962,2.988c0,3.066,2.719,5.56,6.071,5.56c3.348,0,6.058-2.494,6.058-5.56  C50.77,49.845,50.541,49.009,50.138,48.259z"/></svg>
